<svg xmlns="http://www.w3.org/2000/svg" xmlns:xlink="http://www.w3.org/1999/xlink" width="48" height="52" viewBox="0 0 48 52">
    <defs>
        <path id="a" d="M0 51.6V.302h47.858V51.6z"/>
    </defs>
    <g fill="none" fill-rule="evenodd">
        <g transform="translate(0 .098)">
            <mask id="b" fill="#fff">
                <use xlink:href="#a"/>
            </mask>
            <path fill="#F2F2F2" d="M27.21 47.013a13.515 13.515 0 0 0 7.9 1.918c6.856-.443 12.382-6.097 12.73-13.016.353-7.02-4.513-12.958-11.03-14.225a1.569 1.569 0 0 1-1.266-1.738c.091-.721.139-1.456.139-2.202 0-9.862-8.113-17.812-17.976-17.435C9.354.635 1.739 8.022 1.124 16.428c-.335 4.573 1.083 8.804 3.642 12.088.792 1.015.602 2.514-.42 3.292A11.025 11.025 0 0 0 .03 41.41c.386 5.398 4.734 9.778 10.088 10.161 3.4.244 6.497-1.085 8.65-3.337 2.224-2.325 5.695-2.881 8.442-1.221" mask="url(#b)"/>
        </g>
        <path fill="#FF5A5A" d="M15.099 9.433a.579.579 0 0 1-.577-.581V6.36a.58.58 0 0 1 .577-.582.58.58 0 0 1 .576.582v2.492a.579.579 0 0 1-.576.58M15.099 4.08a.579.579 0 0 1-.577-.582V1.006a.58.58 0 0 1 .577-.581.58.58 0 0 1 .576.581v2.492a.579.579 0 0 1-.576.581M13.68 5.51h-2.471a.579.579 0 0 1-.577-.581c0-.321.258-.581.577-.581h2.47c.32 0 .577.26.577.58a.579.579 0 0 1-.576.582M18.989 5.51h-2.471a.58.58 0 0 1-.577-.581.58.58 0 0 1 .577-.581h2.47c.32 0 .577.26.577.58a.579.579 0 0 1-.576.582"/>
        <path fill="#F7B4B9" d="M43.013 31.157c0 .863-.694 1.562-1.55 1.562-.856 0-1.55-.7-1.55-1.562 0-.864.694-1.563 1.55-1.563.856 0 1.55.7 1.55 1.563"/>
        <path fill="#9A9A9A" d="M4.997 47.978c0 .862-.694 1.562-1.55 1.562-.856 0-1.55-.7-1.55-1.562 0-.864.694-1.564 1.55-1.564.856 0 1.55.7 1.55 1.564"/>
        <path fill="#F7B4B9" d="M36.293 50.833a.579.579 0 0 1-.577-.581V47.76c0-.32.258-.581.577-.581.318 0 .576.26.576.58v2.493a.579.579 0 0 1-.576.581M36.293 45.48a.579.579 0 0 1-.577-.582v-2.492c0-.32.258-.58.577-.58.318 0 .576.26.576.58v2.492a.579.579 0 0 1-.576.582M34.874 46.91h-2.471a.58.58 0 0 1-.577-.58.58.58 0 0 1 .577-.582h2.47c.32 0 .577.26.577.581a.579.579 0 0 1-.576.581M40.183 46.91h-2.47a.579.579 0 0 1-.578-.58c0-.322.259-.582.577-.582h2.471c.319 0 .577.26.577.581a.579.579 0 0 1-.577.581"/>
        <path fill="#FEFEFE" d="M14.388 39.135c-3.36 0-6.135-2.572-6.492-5.865a6.584 6.584 0 0 1 0-1.444c.357-3.294 3.132-5.866 6.492-5.866s6.136 2.572 6.493 5.866a6.664 6.664 0 0 1 0 1.444c-.357 3.293-3.132 5.865-6.493 5.865zm10.866-7.87a11.037 11.037 0 0 0-.82-3.086l1.589-1.274-.486-.848-.485-.848-1.892.75a11.072 11.072 0 0 0-2.239-2.256l.745-1.908-.84-.49-.841-.49-1.264 1.602a10.772 10.772 0 0 0-3.062-.828l-.3-2.023H13.418l-.3 2.023c-1.077.126-2.105.41-3.062.828l-1.264-1.601-.84.49-.841.489.744 1.908c-.85.64-1.605 1.4-2.239 2.257l-1.892-.75-.485.847-.485.848 1.588 1.274a11.024 11.024 0 0 0-.82 3.086l-2.008.304v1.958l2.008.302c.126 1.084.406 2.121.82 3.087L2.754 38.19l.485.848.485.847 1.892-.75c.635.857 1.39 1.617 2.24 2.257l-.745 1.908.84.49.841.488 1.264-1.6a10.78 10.78 0 0 0 3.061.828l.3 2.022h1.942l.3-2.022a10.787 10.787 0 0 0 3.062-.829l1.264 1.601.84-.489.841-.49-.745-1.907c.85-.64 1.606-1.4 2.24-2.258l1.891.751.485-.847.486-.848-1.588-1.275a11.04 11.04 0 0 0 .82-3.087l2.008-.302v-1.958l-2.009-.304z"/>
        <path fill="#5F5F5F" d="M14.388 26.658c-2.984 0-5.48 2.255-5.805 5.243a6.009 6.009 0 0 0 0 1.292c.325 2.99 2.82 5.244 5.805 5.244s5.48-2.254 5.806-5.243c.023-.22.036-.438.036-.646 0-.209-.013-.426-.036-.647-.325-2.988-2.82-5.243-5.806-5.243zm0 13.175c-3.692 0-6.779-2.789-7.18-6.487a7.398 7.398 0 0 1 0-1.597c.401-3.698 3.488-6.486 7.18-6.486 3.692 0 6.78 2.788 7.181 6.487a7.436 7.436 0 0 1 0 1.595c-.402 3.7-3.489 6.488-7.18 6.488zm-.374 4.999h.749l.29-1.957.527-.061c.99-.116 1.954-.377 2.866-.776l.487-.212 1.222 1.549.65-.378-.721-1.844.423-.32a10.356 10.356 0 0 0 2.099-2.115l.316-.427 1.83.726.374-.654-1.537-1.234.21-.49c.394-.918.652-1.89.768-2.89l.06-.53 1.944-.294v-.755l-1.943-.293-.061-.53c-.116-1-.374-1.972-.767-2.89l-.21-.49 1.536-1.234-.375-.654-1.829.726-.316-.428a10.356 10.356 0 0 0-2.099-2.115l-.423-.32.72-1.843-.65-.378-1.221 1.548-.487-.212a10.094 10.094 0 0 0-2.866-.775l-.526-.062-.291-1.956h-.75l-.29 1.956-.526.062c-.99.117-1.956.377-2.866.775l-.486.212-1.223-1.548-.65.378.72 1.844-.423.319a10.366 10.366 0 0 0-2.098 2.115l-.316.428-1.83-.726-.374.654 1.537 1.234-.21.49c-.394.917-.653 1.89-.768 2.89l-.061.53-1.943.293v.755l1.943.294.061.53c.115 1 .374 1.972.767 2.89l.21.49-1.536 1.234.374.654 1.83-.726.315.427a10.36 10.36 0 0 0 2.1 2.116l.423.319-.72 1.844.649.378 1.223-1.55.486.213c.912.399 1.876.66 2.866.776l.526.061.29 1.957zm1.941 1.395h-3.134l-.311-2.102a11.447 11.447 0 0 1-2.235-.604l-1.313 1.663-2.713-1.58.774-1.983a11.768 11.768 0 0 1-1.634-1.646l-1.966.78-1.567-2.736 1.65-1.324a11.738 11.738 0 0 1-.597-2.252l-2.086-.315v-3.16l2.086-.315c.125-.77.325-1.525.598-2.252l-1.65-1.325 1.566-2.736 1.966.78c.49-.6 1.036-1.152 1.634-1.646l-.774-1.983 2.713-1.58 1.313 1.663c.722-.276 1.47-.478 2.235-.604l.311-2.101h3.134l.312 2.101c.765.126 1.513.328 2.235.604l1.313-1.663 2.714 1.58-.775 1.983a11.725 11.725 0 0 1 1.633 1.646l1.966-.78 1.567 2.736-1.65 1.325c.273.728.473 1.482.597 2.252l2.087.315v3.16l-2.087.315c-.124.77-.324 1.524-.597 2.252l1.65 1.324-1.567 2.736-1.966-.78c-.488.601-1.035 1.152-1.633 1.646l.775 1.984-2.715 1.58-1.312-1.664c-.723.276-1.47.479-2.235.604l-.312 2.102z"/>
        <path fill="#F05A58" d="M14.388 26.907c-2.859 0-5.249 2.158-5.56 5.022a5.83 5.83 0 0 0-.035.619c0 .2.012.408.035.618.311 2.864 2.701 5.023 5.56 5.023 2.86 0 5.25-2.159 5.561-5.022a5.838 5.838 0 0 0 0-1.239c-.311-2.863-2.702-5.021-5.56-5.021m0 13.174c-3.818 0-7.011-2.884-7.426-6.708a7.604 7.604 0 0 1 0-1.651c.415-3.824 3.608-6.707 7.425-6.707 3.818 0 7.01 2.883 7.426 6.708.03.28.046.557.046.825 0 .267-.016.544-.046.824-.416 3.825-3.608 6.71-7.426 6.71"/>
        <path fill="#9A9A9A" d="M33.668 13.196c-2.48 0-4.553 1.873-4.823 4.356a4.944 4.944 0 0 0 0 1.074c.27 2.483 2.343 4.356 4.823 4.356 2.48 0 4.553-1.873 4.823-4.356a4.957 4.957 0 0 0 0-1.074c-.27-2.483-2.343-4.356-4.823-4.356zm0 10.92c-3.054 0-5.609-2.307-5.941-5.367a6.235 6.235 0 0 1 0-1.32c.332-3.06 2.887-5.367 5.94-5.367 3.055 0 5.61 2.307 5.942 5.367a6.216 6.216 0 0 1 0 1.32c-.333 3.06-2.887 5.367-5.941 5.367zm-.32 4.166h.64l.241-1.622.427-.05a8.4 8.4 0 0 0 2.38-.644l.395-.172 1.014 1.284.554-.323-.596-1.53.343-.259c.664-.499 1.25-1.09 1.742-1.756l.257-.347 1.517.602.32-.56-1.274-1.022.17-.398c.328-.763.542-1.57.637-2.399l.05-.431 1.612-.243v-.646l-1.612-.244-.05-.43a8.555 8.555 0 0 0-.636-2.399l-.17-.398 1.274-1.023-.32-.56-1.518.602-.257-.346a8.592 8.592 0 0 0-1.742-1.756l-.343-.26.597-1.53-.555-.322-1.014 1.285-.395-.173a8.365 8.365 0 0 0-2.38-.643l-.427-.05-.24-1.623h-.642l-.24 1.623-.428.05a8.365 8.365 0 0 0-2.38.643l-.394.173L28.89 9.1l-.555.323.597 1.53-.344.259c-.663.499-1.249 1.09-1.741 1.756l-.258.346-1.517-.602-.32.56 1.275 1.023-.171.398a8.555 8.555 0 0 0-.637 2.398l-.05.431-1.611.244v.646l1.612.243.05.431c.094.83.309 1.636.636 2.399l.17.398-1.274 1.023.32.56 1.517-.603.258.347a8.594 8.594 0 0 0 1.741 1.756l.344.26-.597 1.529.555.323 1.013-1.284.396.172a8.4 8.4 0 0 0 2.38.643l.427.05.24 1.623zm1.609 1.134h-2.578l-.259-1.74a9.464 9.464 0 0 1-1.865-.505l-1.088 1.377-2.233-1.3.642-1.642a9.714 9.714 0 0 1-1.364-1.374l-1.628.646-1.289-2.251 1.367-1.097a9.744 9.744 0 0 1-.5-1.88l-1.727-.262V16.79l1.728-.261a9.74 9.74 0 0 1 .499-1.88l-1.367-1.097 1.289-2.251 1.628.646a9.735 9.735 0 0 1 1.364-1.375l-.641-1.642 2.232-1.3 1.088 1.378a9.464 9.464 0 0 1 1.865-.505l.259-1.74h2.578l.258 1.74a9.464 9.464 0 0 1 1.866.505l1.087-1.377 2.233 1.3-.641 1.641c.499.413.956.873 1.363 1.375l1.629-.646 1.289 2.251-1.367 1.097a9.74 9.74 0 0 1 .5 1.88l1.727.261v2.6l-1.728.26a9.744 9.744 0 0 1-.499 1.881l1.367 1.097-1.29 2.25-1.628-.645a9.714 9.714 0 0 1-1.363 1.374l.641 1.643-2.233 1.3-1.087-1.378c-.603.231-1.228.4-1.866.504l-.258 1.741z"/>
        <path fill="#F7B4B9" d="M33.668 13.763a4.296 4.296 0 0 0-4.265 3.851 4.41 4.41 0 0 0 0 .95 4.295 4.295 0 0 0 4.265 3.851 4.296 4.296 0 0 0 4.264-3.851 4.527 4.527 0 0 0 0-.95 4.296 4.296 0 0 0-4.264-3.851m0 10.92c-3.342 0-6.136-2.525-6.5-5.872a6.762 6.762 0 0 1 0-1.444c.364-3.347 3.158-5.872 6.5-5.872s6.136 2.525 6.5 5.872a6.749 6.749 0 0 1 0 1.443c-.364 3.348-3.158 5.873-6.5 5.873"/>
    </g>
</svg>
