<svg xmlns="http://www.w3.org/2000/svg" xmlns:xlink="http://www.w3.org/1999/xlink" width="80" height="86" viewBox="0 0 80 86">
    <defs>
        <rect id="b" width="442" height="493" x="18" y="17" rx="5"/>
        <filter id="a" width="103.2%" height="102.8%" x="-1.6%" y="-1%" filterUnits="objectBoundingBox">
            <feOffset dy="2" in="SourceAlpha" result="shadowOffsetOuter1"/>
            <feGaussianBlur in="shadowOffsetOuter1" result="shadowBlurOuter1" stdDeviation="2"/>
            <feComposite in="shadowBlurOuter1" in2="SourceAlpha" operator="out" result="shadowBlurOuter1"/>
            <feColorMatrix in="shadowBlurOuter1" values="0 0 0 0 0 0 0 0 0 0 0 0 0 0 0 0 0 0 0.3 0"/>
        </filter>
        <path id="c" d="M0 86V.503h79.763V86z"/>
    </defs>
    <g fill="none" fill-rule="evenodd">
        <path fill="#F3F3F3" d="M-42-37h1368v775H-42z" opacity=".2"/>
        <g transform="translate(-40 -37)">
            <use fill="#000" filter="url(#a)" xlink:href="#b"/>
            <use fill="#FFF" fill-opacity="0" xlink:href="#b"/>
        </g>
        <g transform="translate(0 -.17)">
            <mask id="d" fill="#fff">
                <use xlink:href="#c"/>
            </mask>
            <path fill="#F2F2F2" d="M45.349 78.355a22.524 22.524 0 0 0 13.167 3.196c11.427-.738 20.637-10.16 21.217-21.692.589-11.7-7.522-21.597-18.384-23.71a2.614 2.614 0 0 1-2.109-2.896c.152-1.202.232-2.426.232-3.67 0-16.436-13.522-29.687-29.96-29.058C15.588 1.057 2.897 13.37 1.872 27.38c-.557 7.621 1.806 14.672 6.07 20.146 1.32 1.692 1.004 4.19-.7 5.486C2.515 56.61-.416 62.48.049 69.016c.643 8.997 7.89 16.297 16.813 16.936 5.667.406 10.829-1.808 14.418-5.562 3.705-3.875 9.49-4.802 14.07-2.035" mask="url(#d)"/>
        </g>
        <path fill="#AED038" d="M25.165 14.42v-4.154"/>
        <path fill="#FF5A5A" d="M25.165 15.388a.965.965 0 0 1-.962-.969v-4.153c0-.535.43-.969.962-.969.53 0 .96.434.96.969v4.153c0 .536-.43.969-.96.969"/>
        <path fill="#AED038" d="M25.165 5.497V1.344"/>
        <path fill="#FF5A5A" d="M25.165 6.465a.965.965 0 0 1-.962-.968V1.343c0-.534.43-.968.962-.968.53 0 .96.434.96.968v4.154c0 .535-.43.968-.96.968"/>
        <path fill="#AED038" d="M18.68 7.881h4.12"/>
        <path fill="#FF5A5A" d="M22.8 8.85H18.68a.965.965 0 0 1-.961-.969c0-.535.43-.968.961-.968H22.8c.53 0 .96.433.96.968 0 .536-.43.97-.96.97"/>
        <path fill="#AED038" d="M27.53 7.881h4.118"/>
        <path fill="#FF5A5A" d="M31.648 8.85h-4.119a.965.965 0 0 1-.96-.969c0-.535.43-.968.96-.968h4.119c.53 0 .961.433.961.968 0 .536-.43.97-.961.97"/>
        <path fill="#F7B4B9" d="M71.688 51.594a2.594 2.594 0 0 1-2.583 2.605 2.594 2.594 0 0 1-2.583-2.605 2.594 2.594 0 0 1 2.583-2.604 2.594 2.594 0 0 1 2.583 2.604"/>
        <path fill="#9A9A9A" d="M8.328 79.63a2.594 2.594 0 0 1-2.583 2.604A2.594 2.594 0 0 1 3.16 79.63c0-1.438 1.157-2.605 2.584-2.605 1.426 0 2.583 1.167 2.583 2.605"/>
        <path fill="#ADD038" d="M60.488 83.42v-4.153"/>
        <path fill="#F7B4B9" d="M60.488 84.389a.964.964 0 0 1-.96-.97v-4.152c0-.535.43-.97.96-.97.531 0 .96.435.96.97v4.153c0 .535-.429.969-.96.969"/>
        <path fill="#ADD038" d="M60.488 74.497v-4.152"/>
        <path fill="#F7B4B9" d="M60.488 75.466a.964.964 0 0 1-.96-.969v-4.153c0-.535.43-.969.96-.969.531 0 .96.434.96.97v4.152c0 .536-.429.97-.96.97"/>
        <path fill="#ADD038" d="M54.004 76.882h4.119"/>
        <path fill="#F7B4B9" d="M58.123 77.85h-4.118a.965.965 0 0 1-.962-.968c0-.535.432-.969.962-.969h4.118c.531 0 .96.434.96.97 0 .534-.429.968-.96.968"/>
        <path fill="#ADD038" d="M62.853 76.882h4.119"/>
        <path fill="#F7B4B9" d="M66.972 77.85h-4.118a.965.965 0 0 1-.962-.968c0-.535.43-.969.962-.969h4.118c.53 0 .96.434.96.97 0 .534-.43.968-.96.968"/>
        <path fill="#FEFEFE" d="M23.98 64.892c-5.6 0-10.225-4.286-10.82-9.776a10.94 10.94 0 0 1 0-2.407c.595-5.49 5.22-9.775 10.82-9.775 5.601 0 10.226 4.286 10.822 9.776.043.394.067.796.067 1.202 0 .408-.024.808-.067 1.204-.596 5.49-5.22 9.776-10.821 9.776zm18.11-13.116a18.395 18.395 0 0 0-1.366-5.144l2.648-2.124-.81-1.413-.808-1.413-3.153 1.251a18.453 18.453 0 0 0-3.732-3.762l1.242-3.18-1.402-.815-1.401-.816-2.106 2.668a17.954 17.954 0 0 0-5.103-1.38l-.5-3.37h-3.236l-.5 3.37c-1.794.21-3.508.682-5.104 1.38l-2.105-2.668-1.402.816-1.401.815 1.241 3.18a18.47 18.47 0 0 0-3.732 3.762l-3.153-1.25-.808 1.412-.81 1.413 2.648 2.124a18.373 18.373 0 0 0-1.366 5.144l-3.347.506V55.544l3.347.505a18.378 18.378 0 0 0 1.366 5.144L4.59 63.318l.81 1.413.808 1.413 3.153-1.252a18.473 18.473 0 0 0 3.732 3.763l-1.241 3.18 1.401.815 1.402.816 2.105-2.669c1.596.697 3.31 1.17 5.103 1.38l.5 3.371H25.599l.5-3.37a17.978 17.978 0 0 0 5.104-1.38l2.106 2.668 1.401-.816 1.402-.816-1.242-3.179a18.457 18.457 0 0 0 3.732-3.763l3.153 1.252.808-1.413.81-1.413-2.648-2.125a18.4 18.4 0 0 0 1.366-5.144l3.348-.505V52.282l-3.348-.506z"/>
        <path fill="#5F5F5F" d="M23.98 44.097c-4.974 0-9.133 3.757-9.675 8.739-.04.366-.06.728-.06 1.077s.02.71.06 1.076c.542 4.983 4.701 8.74 9.676 8.74 4.974 0 9.133-3.757 9.676-8.74.039-.367.06-.73.06-1.076 0-.347-.021-.71-.061-1.078-.542-4.98-4.7-8.738-9.675-8.738zm0 21.958c-6.153 0-11.298-4.648-11.967-10.812a12.33 12.33 0 0 1-.074-1.33c0-.434.025-.882.074-1.33.669-6.164 5.814-10.811 11.968-10.811 6.153 0 11.298 4.647 11.968 10.81.049.452.073.9.073 1.33 0 .43-.024.878-.073 1.33-.67 6.165-5.815 10.813-11.968 10.813zm-.624 8.331h1.249l.484-3.26.877-.103a16.812 16.812 0 0 0 4.778-1.293l.81-.354 2.038 2.582 1.081-.63-1.2-3.074.706-.531a17.26 17.26 0 0 0 3.497-3.526l.527-.712 3.049 1.21.624-1.09-2.56-2.056.35-.817a17.222 17.222 0 0 0 1.279-4.817l.101-.884 3.239-.489v-1.26l-3.239-.488-.101-.884a17.236 17.236 0 0 0-1.278-4.816l-.352-.816 2.561-2.056-.624-1.091-3.049 1.21-.527-.712a17.26 17.26 0 0 0-3.497-3.526l-.706-.531 1.2-3.074-1.082-.63-2.036 2.58-.811-.353a16.824 16.824 0 0 0-4.778-1.291l-.877-.104-.484-3.26h-1.249l-.484 3.26-.877.104c-1.651.194-3.26.628-4.777 1.29l-.81.355-2.038-2.581-1.082.63 1.2 3.074-.706.53a17.277 17.277 0 0 0-3.497 3.527l-.527.712-3.049-1.21-.624 1.09 2.561 2.057-.35.816a17.225 17.225 0 0 0-1.28 4.816l-.101.884-3.238.489v1.26l3.238.488.102.884a17.217 17.217 0 0 0 1.278 4.817l.351.817-2.561 2.055.624 1.09 3.048-1.21.527.712a17.267 17.267 0 0 0 3.498 3.527l.706.531-1.2 3.075 1.082.63 2.038-2.583.81.354c1.52.664 3.127 1.1 4.777 1.293l.877.103.484 3.26zm3.236 2.326H21.37l-.52-3.503a19.078 19.078 0 0 1-3.724-1.007l-2.188 2.772-4.523-2.634 1.29-3.304a19.614 19.614 0 0 1-2.722-2.744l-3.276 1.3-2.612-4.56 2.75-2.207a19.564 19.564 0 0 1-.995-3.754l-3.478-.525V51.28l3.478-.526c.207-1.284.54-2.54.995-3.753l-2.75-2.207 2.612-4.56 3.276 1.3a19.614 19.614 0 0 1 2.722-2.744l-1.29-3.304 4.523-2.634 2.188 2.772c1.203-.46 2.45-.797 3.724-1.007l.52-3.503h5.223l.52 3.503c1.274.21 2.521.547 3.725 1.007l2.188-2.772 4.523 2.633-1.291 3.305a19.542 19.542 0 0 1 2.722 2.744l3.277-1.3 2.611 4.56L42.117 47a19.61 19.61 0 0 1 .995 3.753l3.479.526v5.266l-3.479.525a19.59 19.59 0 0 1-.995 3.754l2.75 2.207-2.611 4.56-3.277-1.3a19.614 19.614 0 0 1-2.722 2.744l1.291 3.305-4.524 2.633-2.187-2.772c-1.205.46-2.452.798-3.725 1.007l-.52 3.503z"/>
        <path fill="#F05A58" d="M23.98 44.51c-4.764 0-8.748 3.599-9.267 8.37a9.718 9.718 0 0 0-.057 1.033c0 .333.02.68.057 1.03.52 4.774 4.503 8.372 9.268 8.372 4.765 0 8.749-3.598 9.268-8.37.037-.352.057-.7.057-1.032 0-.333-.02-.68-.057-1.033-.52-4.771-4.503-8.37-9.268-8.37m0 21.959c-6.363 0-11.684-4.807-12.376-11.18-.05-.465-.077-.928-.077-1.376 0-.449.026-.913.077-1.377.692-6.372 6.013-11.178 12.376-11.178 6.363 0 11.683 4.806 12.376 11.18.05.466.076.929.076 1.375 0 .445-.026.907-.076 1.373-.693 6.376-6.013 11.183-12.376 11.183"/>
        <path fill="#9A9A9A" d="M56.113 21.66c-4.133 0-7.589 3.121-8.038 7.26a8.24 8.24 0 0 0 0 1.79c.45 4.139 3.905 7.26 8.038 7.26 4.133 0 7.589-3.121 8.038-7.26a8.261 8.261 0 0 0 0-1.79c-.45-4.139-3.905-7.26-8.038-7.26zm0 18.2c-5.09 0-9.347-3.845-9.902-8.945a10.391 10.391 0 0 1 0-2.2c.555-5.1 4.812-8.945 9.902-8.945 5.09 0 9.348 3.845 9.902 8.945a10.36 10.36 0 0 1 0 2.2c-.554 5.1-4.812 8.945-9.902 8.945zm-.534 6.944h1.068l.402-2.705.712-.084a14 14 0 0 0 3.966-1.072l.659-.287 1.689 2.14.924-.538-.994-2.549.572-.432a14.324 14.324 0 0 0 2.903-2.927l.429-.579 2.528 1.004.534-.932-2.124-1.704.284-.664a14.257 14.257 0 0 0 1.061-3.998l.083-.719 2.686-.405v-1.076l-2.686-.406-.083-.719a14.258 14.258 0 0 0-1.06-3.997l-.285-.664 2.124-1.704-.534-.933-2.528 1.003-.429-.578a14.32 14.32 0 0 0-2.903-2.926l-.572-.432.995-2.55-.925-.538-1.69 2.142-.659-.288a13.942 13.942 0 0 0-3.965-1.072l-.712-.084-.402-2.705H55.58l-.401 2.705-.713.084c-1.369.16-2.703.52-3.965 1.072l-.659.288-1.69-2.142-.924.538.995 2.55-.573.432a14.32 14.32 0 0 0-2.903 2.926l-.429.578-2.528-1.003-.534.933 2.124 1.704-.284.664a14.258 14.258 0 0 0-1.061 3.997l-.083.719-2.686.406v1.076l2.686.405.083.72a14.257 14.257 0 0 0 1.06 3.997l.285.664-2.124 1.704.534.932 2.528-1.004.429.58a14.324 14.324 0 0 0 2.903 2.926l.573.432-.995 2.55.924.538 1.69-2.14.658.286a14 14 0 0 0 3.967 1.072l.712.084.4 2.705zm2.682 1.89h-4.296l-.431-2.902a15.773 15.773 0 0 1-3.11-.84l-1.812 2.295-3.721-2.166 1.07-2.737a16.19 16.19 0 0 1-2.274-2.291l-2.714 1.076-2.148-3.75 2.278-1.829a16.24 16.24 0 0 1-.832-3.134l-2.88-.435v-4.332l2.88-.436c.173-1.07.451-2.12.832-3.133l-2.278-1.828 2.148-3.752 2.714 1.077a16.226 16.226 0 0 1 2.273-2.292l-1.069-2.736 3.721-2.166 1.813 2.295a15.773 15.773 0 0 1 3.109-.84l.431-2.901h4.296l.431 2.9c1.063.174 2.105.456 3.11.841l1.812-2.295 3.72 2.166-1.068 2.736a16.226 16.226 0 0 1 2.273 2.292l2.714-1.077 2.148 3.752-2.278 1.828c.381 1.013.66 2.062.832 3.133l2.88.436v4.332l-2.88.435a16.24 16.24 0 0 1-.832 3.134l2.278 1.828-2.148 3.751-2.714-1.076a16.19 16.19 0 0 1-2.273 2.291l1.07 2.737-3.722 2.166-1.812-2.296a15.773 15.773 0 0 1-3.11.841l-.43 2.901z"/>
        <path fill="#F7B4B9" d="M56.113 22.605c-3.653 0-6.71 2.76-7.107 6.418a7.349 7.349 0 0 0 0 1.584c.398 3.66 3.454 6.418 7.107 6.418 3.654 0 6.71-2.759 7.108-6.418a7.349 7.349 0 0 0 0-1.583c-.398-3.66-3.454-6.42-7.108-6.42m0 18.201c-5.57 0-10.227-4.208-10.833-9.787a11.27 11.27 0 0 1-.066-1.203c0-.394.022-.799.066-1.203.606-5.58 5.264-9.787 10.833-9.787 5.57 0 10.227 4.208 10.833 9.787.044.404.066.809.066 1.203s-.022.798-.065 1.202c-.607 5.58-5.264 9.788-10.834 9.788"/>
    </g>
</svg>
